<svg xmlns="http://www.w3.org/2000/svg" width="512" height="512" viewBox="0 0 512 512">
  <rect width="512" height="512" rx="96" fill="#1d4ed8"/>
  <g fill="#ffffff">
    <path d="M120 320h20l14-56a24 24 0 0 1 23-18h118a24 24 0 0 1 23 17l17 57h37a20 20 0 0 1 20 20v40a12 12 0 0 1-12 12h-20a36 36 0 1 1-72 0h-88a36 36 0 1 1-72 0h-8a12 12 0 0 1-12-12v-40a20 20 0 0 1 12-18z"/>
    <circle cx="196" cy="392" r="16" fill="#1d4ed8"/>
    <circle cx="356" cy="392" r="16" fill="#1d4ed8"/>
    <path d="M281 264h64l14 40h-78z" fill="#1d4ed8"/>
  </g>
  <path d="M256 96c-33 0-60 27-60 60 0 45 60 100 60 100s60-55 60-100c0-33-27-60-60-60z" fill="#ffffff"/>
  <circle cx="256" cy="156" r="22" fill="#1d4ed8"/>
</svg>
