<svg xmlns="http://www.w3.org/2000/svg" width="512" height="512" viewBox="0 0 512 512">
  <rect width="512" height="512" rx="96" fill="#ffffff"/>
  <g transform="translate(70 60) scale(2.3)">
    <g fill="#382E88">
      <rect x="52" y="27" width="88" height="12" />
      <rect x="130" y="27" width="10" height="116" />
      <rect x="129" y="133" width="12" height="10" />
    </g>
    <g fill="#FFCE07">
      <rect x="36" y="44" width="63" height="12" />
      <rect x="89" y="44" width="10" height="71" />
      <rect x="87" y="104" width="14" height="13" />
    </g>
    <g fill="#0092D2">
      <rect x="68" y="61" width="14" height="7" />
      <rect x="69" y="64" width="12" height="15" />
      <rect x="107" y="42" width="16" height="6" />
      <rect x="109" y="44" width="12" height="77" />
      <rect x="70" y="109" width="51" height="12" />
      <rect x="70" y="79" width="11" height="42" />
    </g>
    <g fill="#2D77BD">
      <rect x="21" y="62" width="9" height="16" />
      <rect x="23" y="64" width="38" height="12" />
      <rect x="52" y="64" width="9" height="78" />
      <rect x="52" y="133" width="68" height="10" />
      <rect x="106" y="129" width="14" height="15" />
    </g>
  </g>
</svg>
